<?xml version="1.0" encoding="UTF-8"?>
<svg id="Layer_1" xmlns="http://www.w3.org/2000/svg" width="4in" height="4in" viewBox="0 0 288 288">
    <circle cx="144" cy="144" r="144" fill="#2b2b2b"/>
        <g>
            <path 
                d="M35.0542,208.2543c6.0403-12.65,11.8933-24.9292,17.7646-37.1996,17.411-36.3868,34.8337-72.768,52.2339-109.16,1.0875-2.2744,1.8023-4.3117,5.2251-4.3866,3.5227-.0771,4.1642,2.0774,5.2405,4.3285,22.857,47.8029,45.7213,95.6024,68.5799,143.4045,.4177,.8734,.7843,1.7711,1.1814,2.6726-6.9953,1.9906-8.3128,1.4297-11.1737-4.5881-5.6119-11.8044-11.3097-23.5689-16.7973-35.4306-1.1195-2.4198-2.5001-3.2435-5.1168-3.2358-28.0417,.082-56.0839,.0887-84.1255-.0089-2.71-.0094-3.9611,1.0369-5.0399,3.3607-5.3258,11.4724-10.8215,22.8661-16.2377,34.2967-1.5409,3.2519-3.4757,6.3581-3.4757,6.3581,0,0-3.7689,.1074-8.2589-.4114ZM110.1907,69.6691c-14.0935,29.4982-27.744,58.0691-41.497,86.8545h83.0148c-13.8343-28.9411-27.4478-57.4202-41.5178-86.8545Z" fill="#fff"/><path d="M157.4217,112.4765c-3.6687-4.9608-4.9509-9.3862-1.6844-15.401,6.4278-11.8357,11.8819-24.2034,17.5977-36.417,1.0359-2.2136,2.2399-3.1272,4.7377-3.073,2.2595,.0491,3.5059,.6688,4.5181,2.789,23.1815,48.558,46.4389,97.0799,69.6717,145.6134,.2957,.6178,.4574,1.2997,.6832,1.9563-7.0311,1.9316-8.2957,1.3617-11.3267-5.0127-5.5509-11.6739-11.1752-23.3138-16.6051-35.0436-1.1095-2.3969-2.4652-3.2707-5.1002-3.2358-10.5624,.1399-21.1278,.0574-31.6921,.0568q-7.164-.0004-9.4251-7.6576h40.8807c-13.9809-29.264-27.6111-57.7937-41.7184-87.3222-7.0894,14.7562-13.7848,28.6924-20.5372,42.7473Z" 
                fill="#fff"
            />
        </g>

</svg>